<svg width="20" height="22" viewBox="0 0 20 22" fill="none" xmlns="http://www.w3.org/2000/svg">
<path d="M4.25 15.5L1.25 1C1.25 1 6.5 2 6.5 4C6.5 5.25 4.5 6 5.25 6.75C6 7.5 8.75 8.25 8.75 10.25C8.75 11.5 7.93 12.43 8.75 13.25C9.5 14 10.25 13.607 11.5 13.25C12.9 12.85 15.75 12.5 16.75 12.75C17.75 13 18.75 13.5 18.75 15C18.75 15.825 18.25 16.75 17 17C15.75 17.25 14.25 16 12.25 16C10.25 16 7.75 17.5 6.25 17.5C4.75 17.5 4.25 15.5 4.25 15.5Z" stroke="#333333" stroke-width="2" stroke-linejoin="round"/>
<path d="M16.75 17L18.25 21H1.75L4.75 17" stroke="#333333" stroke-width="2" stroke-linejoin="round"/>
</svg>
