<svg width="24" height="24" viewBox="0 0 24 24" fill="none" xmlns="http://www.w3.org/2000/svg">
<circle cx="12" cy="12" r="12" fill="#D9D9D9"/>
<path d="M6 11V13.2214C6.75926 13.2209 7.51117 13.3701 8.21271 13.6604C8.91425 13.9507 9.55165 14.3765 10.0884 14.9133C10.6251 15.45 11.0507 16.0871 11.3409 16.7884C11.6311 17.4896 11.7802 18.2411 11.7797 19H14C13.998 16.8792 13.1545 14.8457 11.6547 13.3459C10.1549 11.8461 8.12126 11.0024 6 11Z" fill="#333333"/>
<path d="M6 6V9.60983C7.23379 9.60897 8.45565 9.85136 9.59565 10.3231C10.7357 10.7949 11.7714 11.4868 12.6437 12.3591C13.5158 13.2312 14.2074 14.2666 14.6789 15.4061C15.1505 16.5456 15.3928 17.7668 15.392 19H19C18.9967 15.5536 17.6261 12.2493 15.1889 9.81212C12.7518 7.37493 9.44705 6.00394 6 6Z" fill="#333333"/>
</svg>
